<svg width="167" height="39" viewBox="0 0 167 39" fill="none" xmlns="http://www.w3.org/2000/svg">
<path d="M12.8417 9.17119C14.7746 9.17119 16.4332 9.56952 17.8176 10.3662C19.202 11.1629 20.2664 12.2926 21.0108 13.7553C21.7553 15.2181 22.1275 16.9681 22.1275 19.0055V21.4739H7.65026C7.7025 23.5766 8.26409 25.1961 9.33502 26.3323C10.419 27.4685 11.934 28.0366 13.88 28.0366C15.2644 28.0366 16.5051 27.906 17.6021 27.6448C18.7122 27.3706 19.855 26.9722 21.0304 26.4498V30.1916C19.9464 30.7009 18.8428 31.0731 17.7197 31.3082C16.5965 31.5433 15.2513 31.6608 13.6841 31.6608C11.5553 31.6608 9.68112 31.2495 8.06165 30.4267C6.45525 29.5908 5.19494 28.3501 4.28073 26.7045C3.37957 25.0589 2.92899 23.015 2.92899 20.5727C2.92899 18.1435 3.34039 16.08 4.16318 14.3822C4.98598 12.6844 6.1418 11.3914 7.63067 10.5033C9.11953 9.61523 10.8565 9.17119 12.8417 9.17119ZM12.8417 12.6387C11.392 12.6387 10.2166 13.1088 9.31543 14.0492C8.42734 14.9895 7.90493 16.3674 7.74821 18.1827H17.6217C17.6087 17.0987 17.4258 16.1388 17.0732 15.3029C16.7336 14.4671 16.2112 13.8141 15.506 13.3439C14.8138 12.8738 13.9257 12.6387 12.8417 12.6387ZM46.2236 9.58258V31.269H42.5994L41.9725 28.3501H41.7178C41.2607 29.0945 40.6795 29.7149 39.9743 30.2112C39.269 30.6944 38.4854 31.0535 37.6234 31.2886C36.7614 31.5368 35.8538 31.6608 34.9004 31.6608C33.2678 31.6608 31.8704 31.3866 30.708 30.8381C29.5587 30.2765 28.6772 29.4145 28.0633 28.2521C27.4495 27.0898 27.1426 25.5879 27.1426 23.7464V9.58258H31.7659V22.8844C31.7659 24.5692 32.1055 25.8295 32.7846 26.6653C33.4768 27.5012 34.5477 27.9191 35.9974 27.9191C37.3949 27.9191 38.505 27.6318 39.3278 27.0571C40.1506 26.4825 40.7317 25.6336 41.0713 24.5104C41.4239 23.3872 41.6002 22.0094 41.6002 20.3768V9.58258H46.2236ZM63.8156 9.17119C64.1813 9.17119 64.5797 9.19078 65.0107 9.22996C65.4416 9.26914 65.8139 9.32138 66.1273 9.38668L65.6963 13.6965C65.422 13.6182 65.0825 13.5594 64.6776 13.5202C64.2858 13.4811 63.9332 13.4615 63.6197 13.4615C62.7969 13.4615 62.0133 13.5986 61.2689 13.8729C60.5245 14.1341 59.8649 14.5389 59.2903 15.0875C58.7156 15.6229 58.2651 16.2955 57.9386 17.1053C57.6121 17.915 57.4488 18.8553 57.4488 19.9263V31.269H52.8255V9.58258H56.4301L57.057 13.4027H57.2725C57.7035 12.6321 58.2389 11.9269 58.8789 11.2869C59.5188 10.647 60.2502 10.1376 61.073 9.75889C61.9089 9.36709 62.8231 9.17119 63.8156 9.17119ZM78.7826 9.17119C80.7155 9.17119 82.3742 9.56952 83.7586 10.3662C85.143 11.1629 86.2074 12.2926 86.9518 13.7553C87.6962 15.2181 88.0684 16.9681 88.0684 19.0055V21.4739H73.5912C73.6434 23.5766 74.205 25.1961 75.276 26.3323C76.36 27.4685 77.875 28.0366 79.8209 28.0366C81.2053 28.0366 82.446 27.906 83.5431 27.6448C84.6532 27.3706 85.796 26.9722 86.9714 26.4498V30.1916C85.8874 30.7009 84.7838 31.0731 83.6606 31.3082C82.5374 31.5433 81.1922 31.6608 79.625 31.6608C77.4962 31.6608 75.6221 31.2495 74.0026 30.4267C72.3962 29.5908 71.1359 28.3501 70.2217 26.7045C69.3205 25.0589 68.8699 23.015 68.8699 20.5727C68.8699 18.1435 69.2813 16.08 70.1041 14.3822C70.9269 12.6844 72.0828 11.3914 73.5716 10.5033C75.0605 9.61523 76.7975 9.17119 78.7826 9.17119ZM78.7826 12.6387C77.333 12.6387 76.1575 13.1088 75.2564 14.0492C74.3683 14.9895 73.8459 16.3674 73.6892 18.1827H83.5627C83.5496 17.0987 83.3668 16.1388 83.0141 15.3029C82.6746 14.4671 82.1522 13.8141 81.4469 13.3439C80.7547 12.8738 79.8666 12.6387 78.7826 12.6387ZM124.761 9.17119C127.504 9.17119 129.574 9.77848 130.971 10.9931C132.382 12.2077 133.087 14.1014 133.087 16.6743V31.269H129.815L128.934 28.1934H128.777C128.163 28.977 127.53 29.6235 126.877 30.1328C126.224 30.6422 125.466 31.0209 124.604 31.269C123.755 31.5302 122.717 31.6608 121.489 31.6608C120.197 31.6608 119.041 31.4258 118.022 30.9556C117.003 30.4724 116.2 29.741 115.612 28.7615C115.025 27.782 114.731 26.5413 114.731 25.0393C114.731 22.806 115.56 21.1278 117.219 20.0046C118.891 18.8814 121.411 18.2611 124.781 18.1435L128.542 18.0064V16.8702C128.542 15.3682 128.189 14.2973 127.484 13.6574C126.792 13.0174 125.812 12.6974 124.546 12.6974C123.462 12.6974 122.41 12.8542 121.392 13.1676C120.373 13.4811 119.38 13.8663 118.414 14.3234L116.925 11.0714C117.983 10.5099 119.184 10.0527 120.53 9.70012C121.888 9.3475 123.298 9.17119 124.761 9.17119ZM128.522 20.9058L125.721 21.0037C123.422 21.0821 121.809 21.4739 120.882 22.1791C119.955 22.8844 119.491 23.8508 119.491 25.0785C119.491 26.1494 119.811 26.9331 120.451 27.4293C121.091 27.9126 121.934 28.1542 122.978 28.1542C124.572 28.1542 125.891 27.7036 126.936 26.8025C127.993 25.8882 128.522 24.5496 128.522 22.7864V20.9058ZM138.866 28.8398C138.866 27.7689 139.14 27.0179 139.689 26.587C140.25 26.1429 140.93 25.9209 141.726 25.9209C142.523 25.9209 143.202 26.1429 143.764 26.587C144.338 27.0179 144.626 27.7689 144.626 28.8398C144.626 29.8847 144.338 30.6422 143.764 31.1123C143.202 31.5694 142.523 31.798 141.726 31.798C140.93 31.798 140.25 31.5694 139.689 31.1123C139.14 30.6422 138.866 29.8847 138.866 28.8398Z" fill="#0D2430"/>
<path d="M97.5351 38.4718V23.7399C97.5351 23.0738 97.509 22.3424 97.4567 21.5457C97.4045 20.7621 97.3522 20.0242 97.3 19.332H97.398C97.7375 19.7891 98.1424 20.3246 98.6126 20.9384C99.0958 21.5523 99.5529 22.0877 99.9839 22.5449L106.605 29.6757H111.895L103.216 20.3507L112.463 7.98926H107.056L100.121 17.5101L97.5351 15.2964V7.98926H92.9314V38.4718H97.5351Z" fill="#0D2430"/>
<path d="M159.658 1.1818C159.384 0.969959 158.991 1.02023 158.779 1.29408L156.993 3.6032L162.192 7.62498L163.978 5.31587C164.19 5.04202 164.139 4.64829 163.866 4.43645L159.658 1.1818Z" fill="#0D2430"/>
<path d="M161.425 8.61669L156.225 4.5949L149.174 13.711L149.431 13.6781C149.775 13.6343 150.089 13.8771 150.132 14.2206L150.212 14.8424L150.834 14.763C151.177 14.7192 151.491 14.962 151.535 15.3054L151.614 15.9273L152.236 15.8479C152.58 15.804 152.894 16.0469 152.937 16.3903L153.017 17.0122L153.639 16.9328C153.982 16.8889 154.296 17.1318 154.34 17.4752L154.373 17.7328L161.425 8.61669Z" fill="#0D2430"/>
<path d="M153.322 19.0909C153.288 19.0262 153.265 18.9545 153.255 18.8777L153.176 18.2559L152.554 18.3353C152.21 18.3791 151.896 18.1362 151.853 17.7928L151.773 17.171L151.151 17.2504C150.808 17.2942 150.494 17.0514 150.45 16.7079L150.371 16.0861L149.749 16.1655C149.405 16.2093 149.091 15.9665 149.048 15.623L148.968 15.0012L148.346 15.0806C148.27 15.0904 148.194 15.0859 148.123 15.0691L147.93 15.3189C147.878 15.386 147.84 15.463 147.819 15.5452L146.126 22.0812C146.063 22.324 146.15 22.5809 146.349 22.7343C146.547 22.8877 146.818 22.9082 147.037 22.7863L152.938 19.505C153.012 19.4637 153.077 19.4078 153.129 19.3407L153.322 19.0909Z" fill="#0D2430"/>
</svg>
