<svg width="24" height="25" viewBox="0 0 24 25" fill="none" xmlns="http://www.w3.org/2000/svg">
<path d="M7.25 7.25C7.25 7.11193 7.36193 7 7.5 7H16.5C16.6381 7 16.75 7.11193 16.75 7.25C16.75 7.38807 16.6381 7.5 16.5 7.5H7.5C7.36193 7.5 7.25 7.38807 7.25 7.25ZM7.25 10.25C7.25 10.1119 7.36193 10 7.5 10H16.5C16.6381 10 16.75 10.1119 16.75 10.25C16.75 10.3881 16.6381 10.5 16.5 10.5H7.5C7.36193 10.5 7.25 10.3881 7.25 10.25ZM7.25 13.25C7.25 13.1119 7.36193 13 7.5 13H16.5C16.6381 13 16.75 13.1119 16.75 13.25C16.75 13.3881 16.6381 13.5 16.5 13.5H7.5C7.36193 13.5 7.25 13.3881 7.25 13.25ZM7.25 16.25C7.25 16.1119 7.36193 16 7.5 16H12C12.1381 16 12.25 16.1119 12.25 16.25C12.25 16.3881 12.1381 16.5 12 16.5H7.5C7.36193 16.5 7.25 16.3881 7.25 16.25ZM3.5 3.5C3.5 2.11929 4.61929 1 6 1H18C19.3807 1 20.5 2.11929 20.5 3.5V21.5C20.5 22.8807 19.3807 24 18 24H6C4.61929 24 3.5 22.8807 3.5 21.5V3.5ZM18 1.5H6C4.89543 1.5 4 2.39543 4 3.5V21.5C4 22.6046 4.89543 23.5 6 23.5H18C19.1046 23.5 20 22.6046 20 21.5V3.5C20 2.39543 19.1046 1.5 18 1.5Z" fill="#343A40" stroke="black"/>
</svg>
